<?xml version="1.0" encoding="utf-8"?>
<!-- Generator: Adobe Illustrator 16.0.0, SVG Export Plug-In . SVG Version: 6.00 Build 0)  -->
<!DOCTYPE svg PUBLIC "-//W3C//DTD SVG 1.1//EN" "http://www.w3.org/Graphics/SVG/1.1/DTD/svg11.dtd">
<svg version="1.1" id="Layer_1" xmlns="http://www.w3.org/2000/svg" xmlns:xlink="http://www.w3.org/1999/xlink" x="0px" y="0px"
	 width="256px" height="256px" viewBox="0 0 256 256" enable-background="new 0 0 256 256" xml:space="preserve">
<g>
	<path fill="#01B5F0" d="M148.468,103.489l-6.144-15.743l-14.119,26.917c-1.218,2.324-4.526,2.493-5.814,0.139l-10.018-18.294
		l-5.106,7.458c-0.634,0.926-1.624,1.614-2.827,1.614H82.437c10.523,15.701,31.688,30.07,45.563,36.648
		c13.874-6.578,35.04-20.949,45.563-36.65l-22.043-0.004C150.21,105.574,148.973,104.783,148.468,103.489z"/>
	<path fill="#01B5F0" d="M189.409,147.799c-2.435,0-4.757,1.031-6.431,2.889c-2.668-4.33-8.104-4.955-12.551-2.526l-4.742,2.589
		c-2.977-5.195-8.082-4.973-12.569-2.527l-5.443,2.969c3.64,2.205,6.071,6.201,6.071,10.767c0,6.948-5.639,12.417-12.581,12.582
		l-22.952,0.547c-3.054,0.073-5.673-0.589-8.434-1.896l-5.23-2.479l36.616-0.547c4.53,0,8.205-3.674,8.205-8.206
		c0-4.531-3.675-8.206-8.205-8.206l-36.001-0.952c-4.996-2.582-10.775-4.611-16.38-4.611c-3.893,0-7.759,0.646-11.442,1.906
		l-19.357,5.813v39.293l13.664-4.481c4.072-1.334,7.805-1.806,12.008-0.979l39.706,7.813c5.53,1.178,10.569,0.051,15.493-2.728
		l54.676-30.861c2.744-1.548,4.488-4.407,4.488-7.56C198.018,151.652,194.163,147.799,189.409,147.799z"/>
	<path fill="#01B5F0" d="M102.72,99.014l7.258-10.599c1.44-2.106,4.466-1.747,5.662,0.438l9.563,17.465l14.667-27.965
		c1.315-2.507,4.937-2.245,5.942,0.324l7.943,20.337h23.512c1.719-3.783,2.697-7.594,2.697-11.341
		c0-26.122-33.068-42.169-51.965-17.043c-18.897-25.264-51.966-9.079-51.966,17.043c0,3.747,0.978,7.558,2.697,11.341H102.72z"/>
	<path fill="#01B5F0" d="M128,0C57.308,0,0,57.308,0,128c0,70.693,57.308,128,128,128c70.691,0,128-57.307,128-128
		C256,57.308,198.691,0,128,0z M128,242.872c-63.442,0-114.872-51.431-114.872-114.872c0-63.441,51.43-114.871,114.872-114.871
		c63.441,0,114.871,51.43,114.871,114.871C242.871,191.441,191.441,242.872,128,242.872z"/>
</g>
</svg>
