<?xml version="1.0" encoding="utf-8"?>
<!-- Generator: Adobe Illustrator 16.0.0, SVG Export Plug-In . SVG Version: 6.00 Build 0)  -->
<!DOCTYPE svg PUBLIC "-//W3C//DTD SVG 1.1//EN" "http://www.w3.org/Graphics/SVG/1.1/DTD/svg11.dtd">
<svg version="1.1" id="Layer_1" xmlns="http://www.w3.org/2000/svg" xmlns:xlink="http://www.w3.org/1999/xlink" x="0px" y="0px"
	 width="256px" height="256px" viewBox="0 0 256 256" enable-background="new 0 0 256 256" xml:space="preserve">
<g>
	<path fill="#01B5F0" d="M81.503,154.805c-9.666,0-17.504,7.838-17.504,17.504s7.837,17.504,17.504,17.504
		c9.666,0,17.504-7.838,17.504-17.504S91.169,154.805,81.503,154.805z M81.503,178.872c-3.626,0-6.564-2.938-6.564-6.563
		c0-3.627,2.938-6.564,6.564-6.564s6.564,2.938,6.564,6.564C88.067,175.934,85.129,178.872,81.503,178.872z"/>
	<path fill="#01B5F0" d="M100.103,76.034c0-1.8,1.484-3.282,3.282-3.282h49.231c1.794,0,3.282,1.488,3.282,3.282v8.753h6.563v-8.753
		c0-5.417-4.428-9.847-9.846-9.847h-49.231c-5.421,0-9.846,4.425-9.846,9.847v8.753h6.565V76.034z"/>
	<path fill="#01B5F0" d="M174.496,154.805c-4.833,0-9.209,1.959-12.377,5.127s-5.127,7.543-5.127,12.377s1.959,9.209,5.127,12.377
		s7.544,5.127,12.377,5.127s9.209-1.959,12.377-5.127S192,177.143,192,172.309s-1.959-9.209-5.127-12.377
		S179.33,154.805,174.496,154.805z M179.139,176.951c-1.188,1.188-2.83,1.923-4.643,1.923s-3.454-0.735-4.643-1.923
		c-1.188-1.189-1.922-2.829-1.922-4.643s0.734-3.455,1.922-4.643c1.188-1.188,2.83-1.922,4.643-1.922s3.454,0.734,4.643,1.922
		c1.188,1.188,1.922,2.83,1.922,4.643C181.061,174.122,180.326,175.764,179.139,176.951z"/>
	<path fill="#01B5F0" d="M128,0C57.308,0,0,57.308,0,128c0,70.693,57.308,128,128,128c70.691,0,128-57.307,128-128
		C256,57.308,198.691,0,128,0z M128,242.872c-63.442,0-114.872-51.431-114.872-114.872c0-63.441,51.43-114.871,114.872-114.871
		c63.441,0,114.872,51.43,114.872,114.871C242.872,191.441,191.441,242.872,128,242.872z"/>
	<path fill="#01B5F0" d="M189.479,79.649L158.25,91.35H64.548c-3.626,0-6.565,2.939-6.565,6.564c0,3.046,0,6.091,0,9.138
		c0,2.013,1.338,3.717,3.306,4.209c10.616,2.654,21.427,4.62,32.32,5.937l-8.799,31.268c2.184,0.302,4.304,0.901,6.306,1.772
		l7.607-27.031l23.58,16.521l-23.147,16.219c1.502,1.621,2.76,3.422,3.754,5.352L128,143.721l25.088,17.578
		c0.994-1.93,2.252-3.73,3.754-5.352l-23.146-16.219l23.58-16.521l7.607,27.031c2.002-0.871,4.123-1.471,6.307-1.772l-8.799-31.268
		c10.892-1.318,21.703-3.284,32.319-5.937c1.97-0.492,3.308-2.194,3.308-4.209V85.943C198.018,81.56,193.709,78.308,189.479,79.649z
		 M128,135.738l-25.08-17.572c8.349,0.727,16.726,1.082,25.08,1.082c8.354,0,16.73-0.355,25.079-1.082L128,135.738z M192.191,87.971
		l-31.989,11.986c-0.271,0.101-0.548,0.144-0.815,0.137h-94.84c-1.204,0-2.179-0.976-2.179-2.179c0-1.204,0.976-2.18,2.179-2.18
		h94.497l31.625-11.85c1.128-0.42,2.384,0.154,2.804,1.281C193.893,86.295,193.318,87.55,192.191,87.971z"/>
</g>
</svg>
