<?xml version="1.0" encoding="utf-8"?>
<!-- Generator: Adobe Illustrator 16.0.0, SVG Export Plug-In . SVG Version: 6.00 Build 0)  -->
<!DOCTYPE svg PUBLIC "-//W3C//DTD SVG 1.1//EN" "http://www.w3.org/Graphics/SVG/1.1/DTD/svg11.dtd">
<svg version="1.1" id="Layer_1" xmlns="http://www.w3.org/2000/svg" xmlns:xlink="http://www.w3.org/1999/xlink" x="0px" y="0px"
	 width="256px" height="256px" viewBox="0 0 256 256" enable-background="new 0 0 256 256" xml:space="preserve">
<g>
	<path fill="#01B5F0" d="M126.239,134.813c1.406-0.74,2.978-0.688,4.332,0.145c9.189,5.645,17.5,2.143,18.152-9.585
		c0.148-2.646,0.123-5.238-1.168-7.434c-3.486-5.921-4.529-13.21-5.134-21.476c-0.972-13.334-0.575-26.559,0.89-38.48h-20.146
		c-0.631,7.417-0.968,16.869-2.38,25.99l3.994,3.431l2.339-3.452l6.742,12.492l-6.184-5.057l-1.03,4.304l-6.907-6.04
		c-1.876,8.647-5.045,16.507-10.779,21.388c-6.391,5.438-7.536,8.521-6.306,18.183c0.694,5.452,3.255,10.24,9.367,10.24
		C117.26,139.461,121.78,137.163,126.239,134.813z"/>
	<polygon fill="#01B5F0" points="112.523,88.694 101.369,87.116 102.289,92.712 	"/>
	<path fill="#01B5F0" d="M93.733,123.205c-1.437-19.113-0.204-41.289-0.457-60.848v0.001h-8.721
		c0.271,19.746-0.99,42.214,0.459,61.498c0.875,11.645,6.447,22.216,8.016,33.003c1.687,11.582,0.739,24.324,0.088,36.781h8.731
		c0.674-12.699,1.644-25.557-0.169-38.012C100.045,144.395,94.489,133.279,93.733,123.205z"/>
	<polygon fill="#01B5F0" points="113.01,68.41 108.247,71.487 117.137,78.887 	"/>
	<polygon fill="#01B5F0" points="101.85,74.483 99.506,79.646 113.246,83.678 	"/>
	<path fill="#01B5F0" d="M146.029,142.525c-5.555,1.508-11.637,0.459-16.86-2.045c-0.64-0.306-1.367-0.371-1.951,0.031
		c-4.577,3.157-10.963,5.742-17.944,5.491c-1.474-0.054-2.407,1.284-2.196,2.745c0.474,3.289,0.766,6.686,2.395,8.661
		c3.897,4.72,6.733,3.961,9.255,14.61c1.284,5.418,2.129,13.121,2.266,25.998v0.002h22.513c0.38-5.623,1.021-11.752,3.731-27.974
		c0.721-4.3,2.266-7.547,4.578-10.021c0.414-0.443,0.611-0.973,0.588-1.578c-0.127-3.407-1.238-9.695-2.002-13.711
		C149.626,140.645,148.588,141.83,146.029,142.525z"/>
	<path fill="#01B5F0" d="M128,0C57.308,0,0,57.307,0,128c0,70.691,57.308,128,128,128c70.691,0,128-57.309,128-128
		C256,57.307,198.691,0,128,0z M128,242.871c-63.442,0-114.872-51.43-114.872-114.871c0-63.442,51.43-114.872,114.872-114.872
		c63.441,0,114.872,51.43,114.872,114.872C242.872,191.441,191.441,242.871,128,242.871z"/>
	<path fill="#01B5F0" d="M162.926,62.357c-2.908,27.982-7.39,62.017-5.73,86.696c1.166,17.311,4.719,27.977,4.5,44.588h8.755
		c0.222-17.143-3.351-27.597-4.535-45.17c-1.617-24.025,2.897-58.132,5.78-86.114H162.926z"/>
</g>
</svg>
