<?xml version="1.0" encoding="utf-8"?>
<!-- Generator: Adobe Illustrator 16.0.0, SVG Export Plug-In . SVG Version: 6.00 Build 0)  -->
<!DOCTYPE svg PUBLIC "-//W3C//DTD SVG 1.1//EN" "http://www.w3.org/Graphics/SVG/1.1/DTD/svg11.dtd">
<svg version="1.1" id="Layer_1" xmlns="http://www.w3.org/2000/svg" xmlns:xlink="http://www.w3.org/1999/xlink" x="0px" y="0px"
	 width="256px" height="256px" viewBox="0 0 256 256" enable-background="new 0 0 256 256" xml:space="preserve">
<g>
	<path fill="#01B5F0" d="M98.463,172.277l36.65-0.008l54.962,0.008c4.221,0,7.76-3.116,7.924-7.33
		c0.166-4.213-3.115-7.752-7.328-7.928l-46.511-1.935l-0.18-0.897l11.439-10.686l28.773-3.529c4.066-0.498,7.033-4.113,6.693-8.224
		c-0.346-4.213-4.043-7.362-8.256-7l-23.291,2.005c0.223,1.866-0.033,3.811-0.84,5.646c-2.416,5.51-8.898,8.045-14.406,5.611
		l-5.34-2.359l-6.756,5.506h-18.705c-8.961,0-16.742,5.514-19.65,13.994l-2.408,7.02C89.558,167.059,93.217,172.279,98.463,172.277z
		"/>
	<path fill="#01B5F0" d="M113.301,134.563l16.365,0.026l3.879-3.159l0.57-2.607l11.736,5.188c3.314,1.459,7.184-0.046,8.643-3.359
		s-0.045-7.182-3.357-8.64l-14.152-6.256l1.591-7.243l13.721,8.962c1.14,0.79,2.541,1.227,4.035,1.156l23.035-1.112
		c3.61-0.175,6.399-3.237,6.229-6.847c-0.17-3.611-3.234-6.406-6.846-6.23l-20.93,1.01l-19.656-12.839
		c-2.979-1.945-5.832-1.739-8.613,0.604l-5.584,4.704l-6.715-6.046c-1.809-1.627-4.291-2.07-6.556-1.313
		c-1.731,0.578-3.727,1.671-5.204,3.317c-1.366,1.52-2.54,3.568-2.978,6.097l-7.161,41.264c0.656-0.569,1.341-1.109,2.055-1.618
		C102.06,136.303,107.586,134.555,113.301,134.563z"/>
	<circle fill="#01B5F0" cx="125.815" cy="72.752" r="14.77"/>
	<path fill="#01B5F0" d="M128,0C57.309,0,0,57.308,0,128c0,70.691,57.309,128,128,128c70.693,0,128-57.309,128-128
		C256,57.308,198.693,0,128,0z M128,242.872c-63.441,0-114.871-51.431-114.871-114.872c0-63.441,51.43-114.872,114.871-114.872
		c63.441,0,114.872,51.431,114.872,114.872C242.872,191.441,191.441,242.872,128,242.872z"/>
	<circle fill="#01B5F0" cx="72.733" cy="152.068" r="14.77"/>
	<path fill="#01B5F0" d="M192.564,176.684H91.169l-4.549-4.06c-1.042-0.931-2.339-1.411-3.633-1.411H65.072
		c-2.581,0-4.609,1.825-5.319,4.193l-1.557,5.188c-0.155,0.518-0.23,1.04-0.23,1.555l-0.001,15.869h6.563V192
		c0-2.41,1.966-4.376,4.376-4.376h22.72c2.41,0,4.376,1.966,4.376,4.376v1.094h6.565V192c0-2.41,1.966-4.376,4.376-4.376h42.12
		c2.41,0,4.375,1.966,4.375,4.376v6.018H160V192c0-2.41,1.966-4.376,4.377-4.376h22.719c2.41,0,4.377,1.966,4.377,4.376v1.094h6.563
		v-10.939C198.036,179.134,195.586,176.684,192.564,176.684z"/>
</g>
</svg>
