<?xml version="1.0" encoding="utf-8"?>
<!-- Generator: Adobe Illustrator 16.0.0, SVG Export Plug-In . SVG Version: 6.00 Build 0)  -->
<!DOCTYPE svg PUBLIC "-//W3C//DTD SVG 1.1//EN" "http://www.w3.org/Graphics/SVG/1.1/DTD/svg11.dtd">
<svg version="1.1" id="Layer_1" xmlns="http://www.w3.org/2000/svg" xmlns:xlink="http://www.w3.org/1999/xlink" x="0px" y="0px"
	 width="256px" height="256px" viewBox="0 0 256 256" enable-background="new 0 0 256 256" xml:space="preserve">
<g>
	<path fill="#01B5F0" d="M131.157,72.674l3.272,0.49c5.217,0.78,9.766-3.492,8.881-8.805c-0.887-5.312-6.576-7.883-11.258-5.458
		l-2.938,1.521c-2.426,1.256-3.835,4.014-3.362,6.854C126.227,70.116,128.455,72.27,131.157,72.674z"/>
	<path fill="#01B5F0" d="M161.221,73.164l3.273-0.49c2.703-0.404,4.93-2.558,5.404-5.398c0.473-2.84-0.937-5.598-3.361-6.854
		l-2.939-1.521c-4.68-2.425-10.371,0.146-11.256,5.458C151.457,69.672,156.006,73.944,161.221,73.164z"/>
	<path fill="#01B5F0" d="M108.365,123.183c0-9.666-7.851-17.505-17.532-17.505c-9.682,0-17.534,7.839-17.533,17.505
		c0,9.665,7.852,17.504,17.533,17.504C100.513,140.688,108.365,132.848,108.365,123.183z M86.45,123.183
		c0-3.891,4.732-5.842,7.483-3.096c1.711,1.709,1.711,4.481,0,6.19C91.182,129.025,86.45,127.074,86.45,123.183z"/>
	<path fill="#01B5F0" d="M174.359,65.736c0.031,0.746-0.012,1.503-0.139,2.256c-0.268,1.608-0.883,3.102-1.766,4.395
		c2.691,2.289,4.166,5.887,3.557,9.603c-1.67,10.198-3.303,20.405-4.955,30.606c-1.141,0.728-1.976,1.923-2.205,3.363
		c-1.804,11.144-9.5,18.484-21.024,18.484s-19.222-7.339-21.027-18.484c-0.229-1.44-1.064-2.634-2.204-3.363l-4.915-30.337
		c-0.026-0.163-0.05-0.323-0.073-0.482c-0.533-3.633,0.947-7.142,3.591-9.388c-0.884-1.293-1.499-2.787-1.768-4.396
		c-0.126-0.757-0.171-1.515-0.14-2.262c-5.828,3.458-9.268,10.249-8.124,17.312l4.959,30.599c-0.847,1.042-1.263,2.425-1.035,3.855
		c2.296,14.172,11.827,24.56,26.259,26.496v20.673c0,12.941-10.605,23.503-23.563,23.503c-12.956,0-23.56-10.563-23.56-23.503
		v-20.275c-1.747,0.442-3.557,0.672-5.396,0.672c-1.514,0-3.009-0.156-4.466-0.457v20.062c0,18.325,15.07,33.349,33.422,33.349
		c18.352,0,33.423-15.023,33.423-33.349v-20.808c14.006-2.277,23.112-12.547,25.351-26.361c0.227-1.429-0.189-2.812-1.035-3.855
		l4.914-30.332c0.026-0.177,0.061-0.354,0.086-0.538C183.535,75.812,180.113,69.15,174.359,65.736z"/>
	<path fill="#01B5F0" d="M128,0C57.308,0,0,57.308,0,128.001C0,198.691,57.308,256,128,256c70.693,0,128-57.309,128-127.999
		C256,57.308,198.693,0,128,0z M128,242.872c-63.441,0-114.871-51.431-114.871-114.871C13.128,64.558,64.558,13.129,128,13.129
		c63.441,0,114.872,51.429,114.872,114.872C242.872,191.441,191.441,242.872,128,242.872z"/>
</g>
</svg>
