<?xml version="1.0" encoding="utf-8"?>
<!-- Generator: Adobe Illustrator 16.0.0, SVG Export Plug-In . SVG Version: 6.00 Build 0)  -->
<!DOCTYPE svg PUBLIC "-//W3C//DTD SVG 1.1//EN" "http://www.w3.org/Graphics/SVG/1.1/DTD/svg11.dtd">
<svg version="1.1" id="Layer_1" xmlns="http://www.w3.org/2000/svg" xmlns:xlink="http://www.w3.org/1999/xlink" x="0px" y="0px"
	 width="256px" height="256px" viewBox="0 0 256 256" enable-background="new 0 0 256 256" xml:space="preserve">
<g>
	<path fill="#01B5F0" d="M106.049,142.445c-0.507,14.041-3.122,34.953-15.28,37.81c-5.95,1.397-15.309,0.763-21.846-0.479
		c0-26.32,2.04-70.347,25.154-87.063c10.806-7.814,12.043-6.584,12.043,6.574v13.864c3.703-2.097,7.332-4.764,10.938-7.173
		l0.003-6.691c0.009-22.492-11.272-28.526-29.394-15.421c-28.122,20.337-29.684,68.896-29.684,100.358
		c0,2.414,1.615,4.534,4.06,5.188c8.868,2.367,22.432,3.543,31.204,1.482c22.415-5.267,23.794-36.351,23.811-56.232
		c-0.54,0.326-1.08,0.656-1.615,0.99C112.08,137.75,109.003,139.979,106.049,142.445z"/>
	<path fill="#01B5F0" d="M159.152,141.887c0.486,3.084,0.685,5.998,0.615,8.713c-0.074,2.928-0.463,5.668-1.133,8.182
		c-0.613,2.332,0.78,4.72,3.111,5.334c2.332,0.613,4.72-0.78,5.333-3.111c0.753-2.824,1.22-5.896,1.369-9.177
		c1.813,2.177,3.547,4.421,5.194,6.739c1.396,1.965,4.121,2.424,6.084,1.025c1.965-1.398,2.422-4.121,1.026-6.086
		c-5.545-7.802-12.028-14.896-19.2-21.279c3.842,0.137,7.926-0.213,12.338-1.207c2.35-0.531,3.826-2.864,3.299-5.214
		c-0.529-2.351-2.863-3.829-5.215-3.299c-4.818,1.086-9.174,1.226-13.218,0.731c-9.256-1.133-16.664-7.582-24.741-12.672V55.016
		c0-1.662-2.693-3.009-6.018-3.009s-6.017,1.347-6.017,3.009v55.546c-8.078,5.081-15.514,11.546-24.743,12.675
		c-4.043,0.494-8.397,0.354-13.217-0.731c-2.351-0.529-4.685,0.948-5.214,3.299c-0.528,2.351,0.949,4.683,3.3,5.214
		c4.414,0.992,8.499,1.342,12.34,1.205c-7.171,6.383-13.656,13.479-19.201,21.28c-1.396,1.966-0.938,4.688,1.025,6.086
		s4.689,0.938,6.086-1.024c1.638-2.305,3.374-4.551,5.194-6.734c0.145,3.135,0.586,6.216,1.368,9.171
		c0.613,2.331,3.002,3.726,5.333,3.11c2.332-0.613,3.726-3.002,3.111-5.334c-1.43-5.397-1.426-11.098-0.516-16.901
		c1.925-1.851,3.904-3.636,5.924-5.354c7.452-6.344,16.522-10.612,25.228-15.667c12.535,7.279,20.228,10.593,31.013,20.896
		L159.152,141.887z"/>
	<path fill="#01B5F0" d="M128,0C57.308,0,0,57.309,0,128c0,70.693,57.308,128,128,128c70.691,0,128-57.307,128-128
		C256,57.309,198.691,0,128,0z M128,242.872c-63.442,0-114.872-51.431-114.872-114.872c0-63.441,51.43-114.871,114.872-114.871
		c63.441,0,114.872,51.43,114.872,114.871C242.872,191.441,191.441,242.872,128,242.872z"/>
	<path fill="#01B5F0" d="M168.333,83.866c-18.122-13.105-29.403-7.071-29.394,15.421l0.002,6.691
		c3.606,2.409,7.235,5.076,10.938,7.173V99.287c0-13.158,1.238-14.388,12.044-6.574c23.113,16.715,25.153,60.742,25.153,87.063
		c-6.537,1.242-15.896,1.877-21.847,0.479c-12.158-2.856-14.772-23.769-15.279-37.81c-2.953-2.467-6.031-4.695-9.395-6.793
		c-0.535-0.334-1.074-0.664-1.615-0.99c0.018,19.882,1.396,50.966,23.812,56.232c8.772,2.061,22.336,0.885,31.205-1.482
		c2.444-0.653,4.06-2.773,4.06-5.188C198.018,152.762,196.455,104.203,168.333,83.866z"/>
</g>
</svg>
