<?xml version="1.0" encoding="utf-8"?>
<!-- Generator: Adobe Illustrator 16.0.0, SVG Export Plug-In . SVG Version: 6.00 Build 0)  -->
<!DOCTYPE svg PUBLIC "-//W3C//DTD SVG 1.1//EN" "http://www.w3.org/Graphics/SVG/1.1/DTD/svg11.dtd">
<svg version="1.1" id="Layer_1" xmlns="http://www.w3.org/2000/svg" xmlns:xlink="http://www.w3.org/1999/xlink" x="0px" y="0px"
	 width="256px" height="256px" viewBox="0 0 256 256" enable-background="new 0 0 256 256" xml:space="preserve">
<g>
	<path fill="#01B5F0" d="M128,0C57.308,0,0,57.308,0,128c0,70.691,57.308,128,128,128c70.691,0,128-57.309,128-128
		C256,57.308,198.691,0,128,0z M128,242.871c-63.441,0-114.872-51.43-114.872-114.871C13.128,64.558,64.559,13.128,128,13.128
		c63.441,0,114.871,51.43,114.871,114.872C242.871,191.441,191.441,242.871,128,242.871z"/>
	<path fill="#01B5F0" d="M99.344,152.913l26.846,5.294c1.214,0.24,2.524-0.064,3.396-1.059l64.585-73.669
		c5.71-6.514,4.953-16.121-1.55-21.703c-5.932-5.093-15.366-5.501-21.514,1.513l-73.667,84.044
		C95.741,149.273,96.75,152.4,99.344,152.913z M122.294,129.859c0.289-1.481,1.724-2.447,3.204-2.158l13.129,2.589
		c1.48,0.29,2.447,1.726,2.158,3.205c-0.29,1.481-1.725,2.448-3.205,2.157l-13.129-2.588
		C122.971,132.775,122.005,131.339,122.294,129.859z M114.486,138.768c0.288-1.48,1.724-2.447,3.205-2.158l13.127,2.588
		c1.481,0.289,2.447,1.726,2.158,3.205c-0.289,1.481-1.724,2.449-3.205,2.158l-13.127-2.588
		C115.163,141.684,114.196,140.248,114.486,138.768z"/>
	<path fill="#01B5F0" d="M118.095,193.51c-1.103,1.629-2.355,3.131-3.729,4.508h83.651v-6.564h-78.531L118.095,193.51z"/>
	<path fill="#01B5F0" d="M113.193,162.335l-16.615,18.956c-1.586,1.811-4.342,1.995-6.154,0.409
		c-1.812-1.587-1.996-4.341-0.41-6.153l13.29-15.163l-10.517-2.073l-34.805,39.705h26.371c9.001,0,19.522-3.563,24.679-11.184
		l15.114-22.337L113.193,162.335z"/>
</g>
</svg>
