<?xml version="1.0" encoding="UTF-8"?>
<svg width="260px" height="55px" viewBox="0 0 521 110" version="1.1" xmlns="http://www.w3.org/2000/svg" xmlns:xlink="http://www.w3.org/1999/xlink">
    <!-- Generator: Sketch 50.2 (55047) - http://www.bohemiancoding.com/sketch -->
    <title>Untitled</title>
    <desc>Created with Sketch.</desc>
    <defs></defs>
    <g id="Page-1" stroke="none" stroke-width="1" fill="none" fill-rule="evenodd">
        <g id="bjblogo" fill="#246DF8" fill-rule="nonzero">
            <g id="SvgjsG5421" transform="translate(0.000007, 0.000007)">
                <path d="M54.9999968,109.999994 C24.6243373,109.999994 3.71994541e-15,85.3756563 0,54.9999968 C-3.71994541e-15,24.6243373 24.6243373,5.57991812e-15 54.9999968,0 C85.3756563,-5.57991812e-15 109.999994,24.6243373 109.999994,54.9999968 C109.942126,85.3516543 85.3516543,109.942126 54.9999968,109.999994 Z M54.9999968,2.41873791 C25.9601694,2.41873791 2.41873791,25.9601694 2.41873791,54.9999968 C2.41873791,84.0398242 25.9601694,107.581256 54.9999968,107.581256 C84.0398242,107.581256 107.581256,84.0398242 107.581256,54.9999968 C107.581256,25.9601694 84.0398242,2.41873791 54.9999968,2.41873791 Z" id="Shape"></path>
            </g>
            <g id="SvgjsG5422" transform="translate(28.148582, 19.999996)">
                <path d="M49.4174556,33.0212282 C52.606135,34.9834925 54.9363238,37.8042473 56.408022,41.4834928 C57.2665126,43.4457571 57.6957579,45.867927 57.6957579,48.7500026 C57.6957579,53.226418 56.5000032,56.9823144 54.1084936,60.0176919 C51.716984,63.0530694 48.2217008,65.3066073 43.622644,66.7783055 C40.7405683,67.7594376 37.3372663,68.2500037 33.4127378,68.2500037 L4.07075504,68.2500037 C3.21226443,68.2500037 2.46108515,67.9280697 1.81721719,67.2842017 C1.17334923,66.6403338 0.851415248,65.8891545 0.851415248,65.0306639 L0.851415248,58.408022 C0.851415248,57.4882107 1.17334923,56.706371 1.81721719,56.062503 C2.46108515,55.4186351 3.21226443,55.0967011 4.07075504,55.0967011 L34.1485869,55.0967011 C37.7051908,55.0967011 40.3419834,54.4528331 42.0589646,53.1650972 C43.5306628,51.938682 44.2665119,50.2676914 44.2665119,48.1521252 C44.2665119,46.0365591 43.5000025,44.3042477 41.9669835,42.955191 C40.06604,41.2995305 37.2146248,40.4717003 33.4127378,40.4717003 L4.07075504,40.4717003 C3.21226443,40.4717003 2.46108515,40.1497663 1.81721719,39.5058984 C1.17334923,38.8620304 0.851415248,38.0801907 0.851415248,37.1603794 L0.851415248,30.8136809 C0.851415248,29.9551903 1.17334923,29.204011 1.81721719,28.5601431 C2.46108515,27.9162751 3.21226443,27.5943411 4.07075504,27.5943411 L31.7570773,27.5943411 C34.3938699,27.5943411 36.4481153,27.1344354 37.9198135,26.2146241 C38.9622664,25.6014165 39.7900966,24.7122655 40.4033042,23.5471711 C40.8325495,22.6886805 41.0471721,21.6922182 41.0471721,20.5577841 C41.0471721,19.4233501 40.8938702,18.3962274 40.5872664,17.476416 C40.3419834,16.7405669 39.9127381,16.0660386 39.2995305,15.452831 C37.9504739,13.9198121 35.7122662,13.1533026 32.5849075,13.1533026 L4.07075504,13.1533026 C3.21226443,13.1533026 2.46108515,12.8313686 1.81721719,12.1875007 C1.17334923,11.5436327 0.851415248,10.761793 0.851415248,9.84198166 L0.851415248,3.2193398 C0.851415248,2.36084918 1.17334923,1.6096699 1.81721719,0.965801939 C2.46108515,0.32193398 3.21226443,-2.85934813e-14 4.07075504,-2.85934813e-14 L31.7570773,-2.85934813e-14 C39.3608513,-2.85934813e-14 45.2169837,2.14622653 49.3254745,6.43867959 C52.8207577,9.9339628 54.5683993,14.318397 54.5683993,19.5919822 C54.5683993,25.2334919 52.8514181,29.7099073 49.4174556,33.0212282 Z" id="Shape"></path>
            </g>
            <g id="SvgjsG5423" transform="translate(122.914999, 42.000003)">
                <path d="M18.565,12.565 C19.7783333,13.3116667 20.665,14.385 21.225,15.785 C21.5516667,16.5316667 21.715,17.4533333 21.715,18.55 C21.715,20.2533333 21.26,21.6825 20.35,22.8375 C19.44,23.9925 18.11,24.85 16.36,25.41 C15.2633333,25.7833333 13.9683333,25.97 12.475,25.97 L1.31,25.97 C0.983333333,25.97 0.6975,25.8475 0.4525,25.6025 C0.2075,25.3575 0.085,25.0716667 0.085,24.745 L0.085,22.225 C0.085,21.875 0.2075,21.5775 0.4525,21.3325 C0.6975,21.0875 0.983333333,20.965 1.31,20.965 L12.755,20.965 C14.1083333,20.965 15.1116667,20.72 15.765,20.23 C16.325,19.7633333 16.605,19.1275 16.605,18.3225 C16.605,17.5175 16.3133333,16.8583333 15.73,16.345 C15.0066667,15.715 13.9216667,15.4 12.475,15.4 L1.31,15.4 C0.983333333,15.4 0.6975,15.2775 0.4525,15.0325 C0.2075,14.7875 0.085,14.49 0.085,14.14 L0.085,11.725 C0.085,11.3983333 0.2075,11.1125 0.4525,10.8675 C0.6975,10.6225 0.983333333,10.5 1.31,10.5 L11.845,10.5 C12.8483333,10.5 13.63,10.325 14.19,9.975 C14.5866667,9.74166667 14.9016667,9.40333333 15.135,8.96 C15.2983333,8.63333333 15.38,8.25416667 15.38,7.8225 C15.38,7.39083333 15.3216667,7 15.205,6.65 C15.1116667,6.37 14.9483333,6.11333333 14.715,5.88 C14.2016667,5.29666667 13.35,5.005 12.16,5.005 L1.31,5.005 C0.983333333,5.005 0.6975,4.8825 0.4525,4.6375 C0.2075,4.3925 0.085,4.095 0.085,3.745 L0.085,1.225 C0.085,0.898333333 0.2075,0.6125 0.4525,0.3675 C0.6975,0.1225 0.983333333,-1.08801856e-14 1.31,-1.08801856e-14 L11.845,-1.08801856e-14 C14.7383333,-1.08801856e-14 16.9666667,0.816666667 18.53,2.45 C19.86,3.78 20.525,5.44833333 20.525,7.455 C20.525,9.60166667 19.8716667,11.305 18.565,12.565 Z M43.52175,-2.22044605e-16 C43.87175,-2.22044605e-16 44.1634167,0.1225 44.39675,0.3675 C44.6300833,0.6125 44.74675,0.898333333 44.74675,1.225 L44.74675,3.745 C44.74675,4.07166667 44.6300833,4.3575 44.39675,4.6025 C44.1634167,4.8475 43.87175,4.97 43.52175,4.97 L30.29175,4.97 L30.29175,10.325 L41.98175,10.325 C42.33175,10.325 42.6234167,10.4475 42.85675,10.6925 C43.0900833,10.9375 43.20675,11.2233333 43.20675,11.55 L43.20675,14.105 C43.20675,14.4316667 43.0900833,14.7175 42.85675,14.9625 C42.6234167,15.2075 42.33175,15.33 41.98175,15.33 L30.29175,15.33 L30.29175,20.72 L43.52175,20.72 C43.87175,20.72 44.1634167,20.8425 44.39675,21.0875 C44.6300833,21.3325 44.74675,21.6183333 44.74675,21.945 L44.74675,24.465 C44.74675,24.7916667 44.6300833,25.0775 44.39675,25.3225 C44.1634167,25.5675 43.87175,25.69 43.52175,25.69 L26.44175,25.69 C26.1150833,25.69 25.82925,25.5675 25.58425,25.3225 C25.33925,25.0775 25.21675,24.7916667 25.21675,24.465 L25.21675,1.225 C25.21675,0.898333333 25.33925,0.6125 25.58425,0.3675 C25.82925,0.1225 26.1150833,7.54951657e-15 26.44175,7.54951657e-15 L43.52175,7.54951657e-15 Z M65.1885,12.985 C66.1685,13.615 66.921,14.385 67.446,15.295 C67.971,16.205 68.2335,17.22 68.2335,18.34 C68.2335,20.9066667 67.2418333,22.9016667 65.2585,24.325 C63.4151667,25.6083333 60.9301667,26.25 57.8035,26.25 C54.2568333,26.25 51.5151667,25.48 49.5785,23.94 C47.8051667,22.5166667 46.7901667,20.51 46.5335,17.92 C46.4868333,17.5466667 46.5918333,17.2316667 46.8485,16.975 C47.1051667,16.7183333 47.4085,16.59 47.7585,16.59 L50.4885,16.59 C50.8151667,16.59 51.0951667,16.695 51.3285,16.905 C51.5618333,17.115 51.6901667,17.3833333 51.7135,17.71 C51.7601667,18.3166667 51.9176667,18.8358333 52.186,19.2675 C52.4543333,19.6991667 52.8685,20.0783333 53.4285,20.405 C54.5018333,21.0116667 55.9718333,21.315 57.8385,21.315 C59.4485,21.315 60.6968333,21.1283333 61.5835,20.755 C62.2601667,20.4516667 62.7151667,20.0433333 62.9485,19.53 C63.0885,19.25 63.1585,18.8883333 63.1585,18.445 C63.1585,18.165 63.106,17.9316667 63.001,17.745 C62.896,17.5583333 62.7268333,17.3833333 62.4935,17.22 C61.8401667,16.7766667 60.9768333,16.3916667 59.9035,16.065 C58.9701667,15.785 57.7218333,15.4583333 56.1585,15.085 C54.7351667,14.7816667 53.3935,14.3733333 52.1335,13.86 C50.7101667,13.2533333 49.5901667,12.53 48.7735,11.69 C47.7468333,10.6633333 47.2335,9.32166667 47.2335,7.665 C47.2335,5.355 48.1085,3.48833333 49.8585,2.065 C51.5618333,0.688333333 54.0235,-7.32747196e-15 57.2435,-7.32747196e-15 C60.4635,-7.32747196e-15 62.9951667,0.77 64.8385,2.31 C66.5651667,3.73333333 67.4868333,5.565 67.6035,7.805 C67.6501667,8.13166667 67.5451667,8.435 67.2885,8.715 C67.0085,8.94833333 66.7168333,9.065 66.4135,9.065 L63.6835,9.065 C63.3801667,9.065 63.1118333,8.96583333 62.8785,8.7675 C62.6451667,8.56916667 62.5168333,8.31833333 62.4935,8.015 C62.4235,7.40833333 62.2251667,6.90666667 61.8985,6.51 C61.4318333,5.92666667 60.6851667,5.495 59.6585,5.215 C58.9585,5.005 58.066,4.9 56.981,4.9 C55.896,4.9 55.0326667,5.01083333 54.391,5.2325 C53.7493333,5.45416667 53.2768333,5.69333333 52.9735,5.95 C52.6701667,6.20666667 52.4835,6.46333333 52.4135,6.72 C52.2968333,7.11666667 52.2385,7.49 52.2385,7.84 C52.2385,8.02666667 52.3435,8.225 52.5535,8.435 C52.9735,8.80833333 53.4401667,9.08833333 53.9535,9.275 C54.6068333,9.555 55.4118333,9.81166667 56.3685,10.045 C57.3251667,10.2783333 58.3226667,10.5233333 59.361,10.78 C60.3993333,11.0366667 61.3851667,11.3166667 62.3185,11.62 C63.4151667,11.9933333 64.3718333,12.4483333 65.1885,12.985 Z M89.27025,-4.4408921e-16 C89.5969167,-4.4408921e-16 89.8769167,0.1225 90.11025,0.3675 C90.3435833,0.6125 90.46025,0.898333333 90.46025,1.225 L90.46025,3.745 C90.46025,4.07166667 90.3435833,4.3575 90.11025,4.6025 C89.8769167,4.8475 89.5969167,4.97 89.27025,4.97 L82.37525,4.97 L82.37525,24.465 C82.37525,24.7916667 82.25275,25.0775 82.00775,25.3225 C81.76275,25.5675 81.4769167,25.69 81.15025,25.69 L78.52525,25.69 C78.17525,25.69 77.8835833,25.5675 77.65025,25.3225 C77.4169167,25.0775 77.30025,24.7916667 77.30025,24.465 L77.30025,4.97 L70.40525,4.97 C70.0785833,4.97 69.79275,4.8475 69.54775,4.6025 C69.30275,4.3575 69.18025,4.07166667 69.18025,3.745 L69.18025,1.225 C69.18025,0.898333333 69.30275,0.6125 69.54775,0.3675 C69.79275,0.1225 70.0785833,-1.99840144e-15 70.40525,-1.99840144e-15 L89.27025,-4.4408921e-16 Z M97.917,20.79 C98.1503333,20.8833333 98.3311667,21.035 98.4595,21.245 C98.5878333,21.455 98.652,21.6766667 98.652,21.91 L98.652,24.745 C98.652,25.1416667 98.4886667,25.4683333 98.162,25.725 C97.9753333,25.8883333 97.7303333,25.97 97.427,25.97 C97.287,25.97 97.182,25.9583333 97.112,25.935 C95.5953333,25.585 94.312,24.885 93.262,23.835 C91.792,22.4116667 90.952,20.65 90.742,18.55 C90.6953333,18.2 90.8003333,17.8908333 91.057,17.6225 C91.3136667,17.3541667 91.617,17.22 91.967,17.22 L94.732,17.22 C95.0353333,17.22 95.3036667,17.3191667 95.537,17.5175 C95.7703333,17.7158333 95.9103333,17.9666667 95.957,18.27 C96.097,19.04 96.4586667,19.6816667 97.042,20.195 C97.2986667,20.4516667 97.5903333,20.65 97.917,20.79 Z M107.472,-4.4408921e-16 C107.822,-4.4408921e-16 108.1195,0.1225 108.3645,0.3675 C108.6095,0.6125 108.732,0.898333333 108.732,1.225 L108.732,16.975 C108.732,19.5183333 108.067,21.63 106.737,23.31 C105.663667,24.6633333 104.193667,25.55 102.327,25.97 C102.257,25.9933333 102.163667,26.005 102.047,26.005 C101.720333,26.005 101.463667,25.9116667 101.277,25.725 C100.973667,25.4916667 100.822,25.1766667 100.822,24.78 L100.822,22.085 C100.822,21.8283333 100.897833,21.595 101.0495,21.385 C101.201167,21.175 101.393667,21.0233333 101.627,20.93 C102.187,20.72 102.630333,20.37 102.957,19.88 C103.377,19.2033333 103.587,18.2 103.587,16.87 L103.587,1.225 C103.587,0.898333333 103.7095,0.6125 103.9545,0.3675 C104.1995,0.1225 104.485333,-1.99840144e-15 104.812,-1.99840144e-15 L107.472,-1.99840144e-15 Z M124.97375,-2.22044605e-16 C128.800417,-2.22044605e-16 131.93875,1.28333333 134.38875,3.85 C136.792083,6.37 137.99375,9.46166667 137.99375,13.125 C137.99375,16.7883333 136.792083,19.88 134.38875,22.4 C131.93875,24.9666667 128.800417,26.25 124.97375,26.25 C121.147083,26.25 118.00875,24.9666667 115.55875,22.4 C113.155417,19.88 111.95375,16.7883333 111.95375,13.125 C111.95375,9.46166667 113.155417,6.37 115.55875,3.85 C118.00875,1.28333333 121.147083,-2.22044605e-16 124.97375,-2.22044605e-16 Z M124.97375,21.245 C127.377083,21.245 129.31375,20.475 130.78375,18.935 C132.207083,17.4416667 132.91875,15.5108333 132.91875,13.1425 C132.91875,10.7741667 132.195417,8.82583333 130.74875,7.2975 C129.302083,5.76916667 127.377083,5.005 124.97375,5.005 C122.570417,5.005 120.645417,5.76916667 119.19875,7.2975 C117.752083,8.82583333 117.02875,10.7741667 117.02875,13.1425 C117.02875,15.5108333 117.740417,17.4416667 119.16375,18.935 C120.63375,20.475 122.570417,21.245 124.97375,21.245 Z M159.7305,12.425 C160.897167,13.195 161.772167,14.2566667 162.3555,15.61 C162.658833,16.38 162.8105,17.3016667 162.8105,18.375 C162.8105,20.0316667 162.361333,21.4375 161.463,22.5925 C160.564667,23.7475 159.252167,24.5933333 157.5255,25.13 C156.4755,25.5033333 155.192167,25.69 153.6755,25.69 L142.6505,25.69 C142.323833,25.69 142.038,25.5675 141.793,25.3225 C141.548,25.0775 141.4255,24.7916667 141.4255,24.465 L141.4255,1.225 C141.4255,0.898333333 141.548,0.6125 141.793,0.3675 C142.038,0.1225 142.323833,1.55431223e-15 142.6505,1.55431223e-15 L153.0805,1.55431223e-15 C155.927167,1.55431223e-15 158.1205,0.805 159.6605,2.415 C160.967167,3.72166667 161.6205,5.36666667 161.6205,7.35 C161.6205,9.49666667 160.9905,11.1883333 159.7305,12.425 Z M153.6755,15.225 L146.5005,15.225 L146.5005,20.755 L153.9555,20.755 C155.308833,20.755 156.3005,20.51 156.9305,20.02 C157.4905,19.5533333 157.7705,18.9233333 157.7705,18.13 C157.7705,17.3366667 157.478833,16.6833333 156.8955,16.17 C156.1955,15.54 155.122167,15.225 153.6755,15.225 Z M156.3005,8.855 C156.463833,8.52833333 156.5455,8.155 156.5455,7.735 C156.5455,7.22166667 156.487167,6.83666667 156.3705,6.58 C156.277167,6.25333333 156.1255,5.99666667 155.9155,5.81 C155.332167,5.22666667 154.4805,4.935 153.3605,4.935 L146.5005,4.935 L146.5005,10.395 L153.0805,10.395 C154.737167,10.395 155.8105,9.88166667 156.3005,8.855 Z M184.79225,12.565 C186.005583,13.3116667 186.89225,14.385 187.45225,15.785 C187.778917,16.5316667 187.94225,17.4533333 187.94225,18.55 C187.94225,20.2533333 187.48725,21.6825 186.57725,22.8375 C185.66725,23.9925 184.33725,24.85 182.58725,25.41 C181.490583,25.7833333 180.195583,25.97 178.70225,25.97 L167.53725,25.97 C167.210583,25.97 166.92475,25.8475 166.67975,25.6025 C166.43475,25.3575 166.31225,25.0716667 166.31225,24.745 L166.31225,22.225 C166.31225,21.875 166.43475,21.5775 166.67975,21.3325 C166.92475,21.0875 167.210583,20.965 167.53725,20.965 L178.98225,20.965 C180.335583,20.965 181.338917,20.72 181.99225,20.23 C182.55225,19.7633333 182.83225,19.1275 182.83225,18.3225 C182.83225,17.5175 182.540583,16.8583333 181.95725,16.345 C181.233917,15.715 180.148917,15.4 178.70225,15.4 L167.53725,15.4 C167.210583,15.4 166.92475,15.2775 166.67975,15.0325 C166.43475,14.7875 166.31225,14.49 166.31225,14.14 L166.31225,11.725 C166.31225,11.3983333 166.43475,11.1125 166.67975,10.8675 C166.92475,10.6225 167.210583,10.5 167.53725,10.5 L178.07225,10.5 C179.075583,10.5 179.85725,10.325 180.41725,9.975 C180.813917,9.74166667 181.128917,9.40333333 181.36225,8.96 C181.525583,8.63333333 181.60725,8.25416667 181.60725,7.8225 C181.60725,7.39083333 181.548917,7 181.43225,6.65 C181.338917,6.37 181.175583,6.11333333 180.94225,5.88 C180.428917,5.29666667 179.57725,5.005 178.38725,5.005 L167.53725,5.005 C167.210583,5.005 166.92475,4.8825 166.67975,4.6375 C166.43475,4.3925 166.31225,4.095 166.31225,3.745 L166.31225,1.225 C166.31225,0.898333333 166.43475,0.6125 166.67975,0.3675 C166.92475,0.1225 167.210583,-1.08801856e-14 167.53725,-1.08801856e-14 L178.07225,-1.08801856e-14 C180.965583,-1.08801856e-14 183.193917,0.816666667 184.75725,2.45 C186.08725,3.78 186.75225,5.44833333 186.75225,7.455 C186.75225,9.60166667 186.098917,11.305 184.79225,12.565 Z M202.994,-2.22044605e-16 C206.820667,-2.22044605e-16 209.959,1.28333333 212.409,3.85 C214.812333,6.37 216.014,9.46166667 216.014,13.125 C216.014,16.7883333 214.812333,19.88 212.409,22.4 C209.959,24.9666667 206.820667,26.25 202.994,26.25 C199.167333,26.25 196.029,24.9666667 193.579,22.4 C191.175667,19.88 189.974,16.7883333 189.974,13.125 C189.974,9.46166667 191.175667,6.37 193.579,3.85 C196.029,1.28333333 199.167333,-2.22044605e-16 202.994,-2.22044605e-16 Z M202.994,21.245 C205.397333,21.245 207.334,20.475 208.804,18.935 C210.227333,17.4416667 210.939,15.5108333 210.939,13.1425 C210.939,10.7741667 210.215667,8.82583333 208.769,7.2975 C207.322333,5.76916667 205.397333,5.005 202.994,5.005 C200.590667,5.005 198.665667,5.76916667 197.219,7.2975 C195.772333,8.82583333 195.049,10.7741667 195.049,13.1425 C195.049,15.5108333 195.760667,17.4416667 197.184,18.935 C198.654,20.475 200.590667,21.245 202.994,21.245 Z M232.32575,0.735 L242.12575,23.87 C242.242417,24.0566667 242.30075,24.255 242.30075,24.465 C242.30075,24.7916667 242.184083,25.0775 241.95075,25.3225 C241.717417,25.5675 241.42575,25.69 241.07575,25.69 L238.17075,25.69 C237.914083,25.69 237.686583,25.6258333 237.48825,25.4975 C237.289917,25.3691667 237.144083,25.1883333 237.05075,24.955 L234.49575,18.935 L224.59075,18.935 L222.07075,24.955 C221.977417,25.1883333 221.831583,25.3691667 221.63325,25.4975 C221.434917,25.6258333 221.207417,25.69 220.95075,25.69 L218.04575,25.69 C217.83575,25.69 217.637417,25.6375 217.45075,25.5325 C217.264083,25.4275 217.11825,25.2933333 217.01325,25.13 C216.90825,24.9666667 216.844083,24.7858333 216.82075,24.5875 C216.797417,24.3891667 216.832417,24.1966667 216.92575,24.01 L226.79575,0.735 C226.889083,0.501666667 227.034917,0.320833333 227.23325,0.1925 C227.431583,0.0641666667 227.659083,4.88498131e-15 227.91575,3.33066907e-15 L231.20575,3.33066907e-15 C231.462417,3.33066907e-15 231.689917,0.0641666667 231.88825,0.1925 C232.086583,0.320833333 232.232417,0.501666667 232.32575,0.735 Z M229.56075,7.105 L226.65575,14.07 L232.46575,14.07 L229.56075,7.105 Z M261.0275,15.785 L266.2425,23.8 C266.359167,23.9866667 266.423333,24.1966667 266.435,24.43 C266.446667,24.6633333 266.4,24.8733333 266.295,25.06 C266.19,25.2466667 266.038333,25.3983333 265.84,25.515 C265.641667,25.6316667 265.4375,25.69 265.2275,25.69 L262.0775,25.69 C261.8675,25.69 261.669167,25.6375 261.4825,25.5325 C261.295833,25.4275 261.155833,25.2933333 261.0625,25.13 L255.8125,16.765 L249.6175,16.765 L249.6175,24.465 C249.6175,24.7916667 249.495,25.0775 249.25,25.3225 C249.005,25.5675 248.719167,25.69 248.3925,25.69 L245.7675,25.69 C245.440833,25.69 245.155,25.5675 244.91,25.3225 C244.665,25.0775 244.5425,24.7916667 244.5425,24.465 L244.5425,1.225 C244.5425,0.898333333 244.665,0.6125 244.91,0.3675 C245.155,0.1225 245.440833,8.65973959e-15 245.7675,8.65973959e-15 L256.8975,8.65973959e-15 C259.580833,8.65973959e-15 261.756667,0.764166667 263.425,2.2925 C265.093333,3.82083333 265.9275,5.89166667 265.9275,8.505 C265.9275,10.185 265.56,11.6258333 264.825,12.8275 C264.09,14.0291667 263.010833,14.9333333 261.5875,15.54 C261.494167,15.5866667 261.3425,15.6566667 261.1325,15.75 L261.0275,15.785 Z M249.6175,4.935 L249.6175,11.83 L256.4425,11.83 C258.449167,11.83 259.814167,11.2583333 260.5375,10.115 C260.770833,9.695 260.8875,9.15833333 260.8875,8.505 C260.8875,7.40833333 260.525833,6.545 259.8025,5.915 C259.009167,5.26166667 257.935833,4.935 256.5825,4.935 L249.6175,4.935 Z M285.17925,0.875 C286.625917,1.48166667 287.897583,2.345 288.99425,3.465 C291.420917,5.93833333 292.63425,9.065 292.63425,12.845 C292.63425,16.625 291.420917,19.7516667 288.99425,22.225 C287.897583,23.345 286.625917,24.2083333 285.17925,24.815 C283.77925,25.3983333 282.297583,25.69 280.73425,25.69 L270.93425,25.69 C270.607583,25.69 270.32175,25.5675 270.07675,25.3225 C269.83175,25.0775 269.70925,24.7916667 269.70925,24.465 L269.70925,1.225 C269.70925,0.898333333 269.83175,0.6125 270.07675,0.3675 C270.32175,0.1225 270.607583,1.55431223e-15 270.93425,1.55431223e-15 L280.73425,1.55431223e-15 C282.250917,1.55431223e-15 283.732583,0.291666667 285.17925,0.875 Z M274.78425,4.935 L274.78425,20.755 L280.62925,20.755 C282.682583,20.755 284.350917,20.0025 285.63425,18.4975 C286.917583,16.9925 287.55925,15.1083333 287.55925,12.845 C287.55925,10.5816667 286.917583,8.6975 285.63425,7.1925 C284.350917,5.6875 282.682583,4.935 280.62925,4.935 L274.78425,4.935 Z M313.076,12.985 C314.056,13.615 314.8085,14.385 315.3335,15.295 C315.8585,16.205 316.121,17.22 316.121,18.34 C316.121,20.9066667 315.129333,22.9016667 313.146,24.325 C311.302667,25.6083333 308.817667,26.25 305.691,26.25 C302.144333,26.25 299.402667,25.48 297.466,23.94 C295.692667,22.5166667 294.677667,20.51 294.421,17.92 C294.374333,17.5466667 294.479333,17.2316667 294.736,16.975 C294.992667,16.7183333 295.296,16.59 295.646,16.59 L298.376,16.59 C298.702667,16.59 298.982667,16.695 299.216,16.905 C299.449333,17.115 299.577667,17.3833333 299.601,17.71 C299.647667,18.3166667 299.805167,18.8358333 300.0735,19.2675 C300.341833,19.6991667 300.756,20.0783333 301.316,20.405 C302.389333,21.0116667 303.859333,21.315 305.726,21.315 C307.336,21.315 308.584333,21.1283333 309.471,20.755 C310.147667,20.4516667 310.602667,20.0433333 310.836,19.53 C310.976,19.25 311.046,18.8883333 311.046,18.445 C311.046,18.165 310.9935,17.9316667 310.8885,17.745 C310.7835,17.5583333 310.614333,17.3833333 310.381,17.22 C309.727667,16.7766667 308.864333,16.3916667 307.791,16.065 C306.857667,15.785 305.609333,15.4583333 304.046,15.085 C302.622667,14.7816667 301.281,14.3733333 300.021,13.86 C298.597667,13.2533333 297.477667,12.53 296.661,11.69 C295.634333,10.6633333 295.121,9.32166667 295.121,7.665 C295.121,5.355 295.996,3.48833333 297.746,2.065 C299.449333,0.688333333 301.911,-7.32747196e-15 305.131,-7.32747196e-15 C308.351,-7.32747196e-15 310.882667,0.77 312.726,2.31 C314.452667,3.73333333 315.374333,5.565 315.491,7.805 C315.537667,8.13166667 315.432667,8.435 315.176,8.715 C314.896,8.94833333 314.604333,9.065 314.301,9.065 L311.571,9.065 C311.267667,9.065 310.999333,8.96583333 310.766,8.7675 C310.532667,8.56916667 310.404333,8.31833333 310.381,8.015 C310.311,7.40833333 310.112667,6.90666667 309.786,6.51 C309.319333,5.92666667 308.572667,5.495 307.546,5.215 C306.846,5.005 305.9535,4.9 304.8685,4.9 C303.7835,4.9 302.920167,5.01083333 302.2785,5.2325 C301.636833,5.45416667 301.164333,5.69333333 300.861,5.95 C300.557667,6.20666667 300.371,6.46333333 300.301,6.72 C300.184333,7.11666667 300.126,7.49 300.126,7.84 C300.126,8.02666667 300.231,8.225 300.441,8.435 C300.861,8.80833333 301.327667,9.08833333 301.841,9.275 C302.494333,9.555 303.299333,9.81166667 304.256,10.045 C305.212667,10.2783333 306.210167,10.5233333 307.2485,10.78 C308.286833,11.0366667 309.272667,11.3166667 310.206,11.62 C311.302667,11.9933333 312.259333,12.4483333 313.076,12.985 Z M322.73775,19.74 C323.064417,19.74 323.35025,19.8566667 323.59525,20.09 C323.84025,20.3233333 323.96275,20.615 323.96275,20.965 L323.96275,24.605 C323.96275,24.9316667 323.84025,25.2175 323.59525,25.4625 C323.35025,25.7075 323.064417,25.83 322.73775,25.83 L319.55275,25.83 C319.20275,25.83 318.911083,25.7075 318.67775,25.4625 C318.444417,25.2175 318.32775,24.9316667 318.32775,24.605 L318.32775,20.965 C318.32775,20.615 318.444417,20.3233333 318.67775,20.09 C318.911083,19.8566667 319.20275,19.74 319.55275,19.74 L322.73775,19.74 Z M349.0595,-8.8817842e-16 C349.386167,-8.8817842e-16 349.672,0.1225 349.917,0.3675 C350.162,0.6125 350.2845,0.898333333 350.2845,1.225 L350.2845,24.465 C350.2845,24.7916667 350.162,25.0775 349.917,25.3225 C349.672,25.5675 349.386167,25.69 349.0595,25.69 L345.9795,25.69 C345.582833,25.69 345.256167,25.5266667 344.9995,25.2 L332.8545,8.575 L332.8545,24.465 C332.8545,24.7916667 332.732,25.0775 332.487,25.3225 C332.242,25.5675 331.956167,25.69 331.6295,25.69 L329.0045,25.69 C328.677833,25.69 328.392,25.5675 328.147,25.3225 C327.902,25.0775 327.7795,24.7916667 327.7795,24.465 L327.7795,1.225 C327.7795,0.898333333 327.902,0.6125 328.147,0.3675 C328.392,0.1225 328.677833,-5.55111512e-15 329.0045,-5.55111512e-15 L332.0495,-5.55111512e-15 C332.236167,-5.55111512e-15 332.422833,0.0408333333 332.6095,0.1225 C332.796167,0.204166667 332.936167,0.326666667 333.0295,0.49 L345.2095,17.045 L345.2095,1.225 C345.2095,0.898333333 345.326167,0.6125 345.5595,0.3675 C345.792833,0.1225 346.072833,-2.44249065e-15 346.3995,-2.44249065e-15 L349.0595,-8.8817842e-16 Z M373.49125,-2.22044605e-16 C373.84125,-2.22044605e-16 374.132917,0.1225 374.36625,0.3675 C374.599583,0.6125 374.71625,0.898333333 374.71625,1.225 L374.71625,3.745 C374.71625,4.07166667 374.599583,4.3575 374.36625,4.6025 C374.132917,4.8475 373.84125,4.97 373.49125,4.97 L360.26125,4.97 L360.26125,10.325 L371.95125,10.325 C372.30125,10.325 372.592917,10.4475 372.82625,10.6925 C373.059583,10.9375 373.17625,11.2233333 373.17625,11.55 L373.17625,14.105 C373.17625,14.4316667 373.059583,14.7175 372.82625,14.9625 C372.592917,15.2075 372.30125,15.33 371.95125,15.33 L360.26125,15.33 L360.26125,20.72 L373.49125,20.72 C373.84125,20.72 374.132917,20.8425 374.36625,21.0875 C374.599583,21.3325 374.71625,21.6183333 374.71625,21.945 L374.71625,24.465 C374.71625,24.7916667 374.599583,25.0775 374.36625,25.3225 C374.132917,25.5675 373.84125,25.69 373.49125,25.69 L356.41125,25.69 C356.084583,25.69 355.79875,25.5675 355.55375,25.3225 C355.30875,25.0775 355.18625,24.7916667 355.18625,24.465 L355.18625,1.225 C355.18625,0.898333333 355.30875,0.6125 355.55375,0.3675 C355.79875,0.1225 356.084583,7.54951657e-15 356.41125,7.54951657e-15 L373.49125,7.54951657e-15 Z M395.928,-4.4408921e-16 C396.254667,-4.4408921e-16 396.534667,0.1225 396.768,0.3675 C397.001333,0.6125 397.118,0.898333333 397.118,1.225 L397.118,3.745 C397.118,4.07166667 397.001333,4.3575 396.768,4.6025 C396.534667,4.8475 396.254667,4.97 395.928,4.97 L389.033,4.97 L389.033,24.465 C389.033,24.7916667 388.9105,25.0775 388.6655,25.3225 C388.4205,25.5675 388.134667,25.69 387.808,25.69 L385.183,25.69 C384.833,25.69 384.541333,25.5675 384.308,25.3225 C384.074667,25.0775 383.958,24.7916667 383.958,24.465 L383.958,4.97 L377.063,4.97 C376.736333,4.97 376.4505,4.8475 376.2055,4.6025 C375.9605,4.3575 375.838,4.07166667 375.838,3.745 L375.838,1.225 C375.838,0.898333333 375.9605,0.6125 376.2055,0.3675 C376.4505,0.1225 376.736333,-1.99840144e-15 377.063,-1.99840144e-15 L395.928,-4.4408921e-16 Z" id="Shape"></path>
            </g>
        </g>
    </g>
</svg>