<?xml version="1.0" encoding="UTF-8"?>
<svg width="100px" height="51px" viewBox="0 0 200 103" version="1.1" xmlns="http://www.w3.org/2000/svg" xmlns:xlink="http://www.w3.org/1999/xlink">
    <!-- Generator: Sketch 50.2 (55047) - http://www.bohemiancoding.com/sketch -->
    <title>Untitled</title>
    <desc>Created with Sketch.</desc>
    <defs></defs>
    <g id="Page-1" stroke="none" stroke-width="1" fill="none" fill-rule="evenodd">
        <g id="logo" fill="#246DF8" fill-rule="nonzero">
            <path d="M3.33574626e-08,100.603626 L3.33574626e-08,2.03223109 L7.97260536,2.03223109 L7.97260536,100.603626 L3.33574626e-08,100.603626 Z M81.9256054,0.00103791614 C91.2993898,0.00103791614 99.8999436,2.29566651 107.727956,6.88602537 C115.555967,11.4763842 121.764533,17.6609887 126.35503,25.4401143 C130.945526,33.2192399 133.24043,41.7956948 133.24043,51.1694792 C133.24043,60.5432635 130.94532,69.1438174 126.35503,76.9718293 C121.76474,84.7998412 115.555967,91.0084069 107.727956,95.5989035 C99.8999436,100.1894 91.3000783,102.484304 81.9256054,102.484304 C72.5511325,102.484304 63.9760547,100.189194 56.1962405,95.5989035 C48.4164264,91.0086135 42.2319596,84.7998412 37.6421516,76.9718293 C33.0523436,69.1438174 30.756751,60.5439521 30.756751,51.1694792 C30.756751,44.3083152 32.0613279,37.7367512 34.6705504,31.4552003 C37.279773,25.1736493 40.9761314,19.6412299 45.759488,14.8579422 C50.5428447,10.0746544 56.0510963,6.40198171 62.2844494,3.84130123 C68.5178026,1.28062076 75.0644415,5.10605572e-06 81.9257431,5.10605572e-06 L81.9256054,0.00103791614 Z M81.9256054,7.97433179 C74.1946777,7.97433179 66.9953028,9.88296483 60.3274809,13.7000932 C53.659659,17.5172216 48.3930161,22.8081011 44.5275522,29.5730072 C40.6620883,36.3379132 38.7292875,43.5372881 38.7292875,51.1711317 C38.7292875,58.9984551 40.6619506,66.2467163 44.5275522,72.9145382 C48.3931538,79.5823601 53.659659,84.849003 60.3274809,88.7144669 C66.9953028,92.5799308 74.1946777,94.5127316 81.9256054,94.5127316 C89.7529288,94.5127316 97.00119,92.5800685 103.669012,88.7144669 C110.336834,84.8488653 115.603477,79.5823601 119.468941,72.9145382 C123.334405,66.2467163 125.267205,58.9984551 125.267205,51.1711317 C125.267205,43.5365995 123.334542,36.3379132 119.468941,29.5730072 C115.603339,22.8081011 110.336834,17.5173593 103.669012,13.7000932 C97.00119,9.88282712 89.7529288,7.97433179 81.9256054,7.97433179 Z M180.3756,66.3942015 L199.800003,100.603626 L190.667896,100.603626 L175.737594,74.3668069 L160.807291,100.603626 L151.675184,100.603626 L171.244181,66.3942015 L156.893629,41.3168841 L166.025736,41.3168841 L175.737594,58.4215962 L185.449451,41.3168841 L194.581558,41.3168841 L180.3756,66.3942015 Z" id="Shape"></path>
        </g>
    </g>
</svg>